/* XPM */
static char *_ef351f570dc416cd68cc79c75af7a89NK5sa1yjSMfXUWOz[] = {
/* columns rows colors chars-per-pixel */
"20 20 2 1 ",
"  c None",
". c white",
/* pixels */
"                    ",
"                    ",
"          .         ",
"         ...        ",
"        .....       ",
"                    ",
"      .........     ",
"     ...........    ",
"    .....   .....   ",
"   ..... ... .....  ",
"  ...... ... ...... ",
"   ..... ... .....  ",
"    .....   .....   ",
"     ...........    ",
"      .........     ",
"       .......      ",
"        .....       ",
"         ...        ",
"          .         ",
"                    "
};
